# xmcd CD database file
#
# Track frame offsets:
#	300
#	21737
#	43527
#	65413
#	86756
#	102806
#	129061
#
# Disc length: 1873 seconds
#
# Revision: 1
# Processed by: cddbd v1.5.2PL0 Copyright (c) Steve Scherf et al.
# Submitted via: CDex 1.51
#
DISCID=57074d07
DTITLE=Various Artist - ZM-007
DYEAR=1900
DGENRE=Blues
TTITLE0=Thompson Twins - Hold Me Now
TTITLE1=Thompson Twins - Doctor Doctor
TTITLE2=Sam Smith - Writing's On The Wall ZM
TTITLE3=ABC - All Of My Heart
TTITLE4=Josh Turner - Your Man
TTITLE5=The Stylistics - You Make Me Feel Brand New ZM
TTITLE6=Madness - One Step Beyond
EXTD=
EXTT0=
EXTT1=
EXTT2=
EXTT3=
EXTT4=
EXTT5=
EXTT6=
PLAYORDER=
